<?xml version="1.0" encoding="UTF-8" ?><!DOCTYPE svg PUBLIC "-//W3C//DTD SVG 1.1 Basic//EN" "http://www.w3.org/Graphics/SVG/1.1/DTD/svg11-basic.dtd">
<svg xmlns="http://www.w3.org/2000/svg" xmlns:xlink="http://www.w3.org/1999/xlink" width="80" height="15" viewBox="0 0 80 15" baseProfile="basic" version="1.1">
<defs>
<clipPath id="clip1">
  <path d="M 5 1.933594 L 20 1.933594 L 20 13.132813 L 5 13.132813 Z "/>
</clipPath>
<clipPath id="clip2">
  <path d="M 4 1.933594 L 21 1.933594 L 21 13.132813 L 4 13.132813 Z "/>
</clipPath>
</defs>
<g id="surface1">
<path style="fill-rule:nonzero;fill:rgb(100%,100%,100%);fill-opacity:1;stroke-width:1.041618;stroke-linecap:butt;stroke-linejoin:miter;stroke:rgb(0%,0%,0%);stroke-opacity:1;stroke-miterlimit:4;" d="M 170.498434 237.864249 L 250.49828 237.864249 L 250.49828 252.863953 L 170.498434 252.863953 Z " transform="matrix(0.987502,0,0,0.933352,-167.87534,-221.475869)"/>
<path style=" stroke:none;fill-rule:nonzero;fill:rgb(0%,0%,0%);fill-opacity:1;" d="M 1.976563 1.933594 L 78.011719 1.933594 L 78.011719 13.132813 L 1.976563 13.132813 Z "/>
<path style=" stroke:none;fill-rule:nonzero;fill:rgb(67.058824%,69.411765%,66.666667%);fill-opacity:1;" d="M 1.976563 1.945313 L 1.976563 13.144531 L 22.054688 13.144531 C 23.347656 11.511719 24.21875 9.613281 24.21875 7.546875 C 24.21875 5.492188 23.363281 3.570313 22.085938 1.945313 Z "/>
<g clip-path="url(#clip1)" clip-rule="nonzero">
<path style=" stroke:none;fill-rule:nonzero;fill:rgb(100%,100%,100%);fill-opacity:1;" d="M 19.289063 7.535156 C 19.292969 11.023438 16.300781 13.855469 12.605469 13.859375 C 8.910156 13.863281 5.914063 11.03125 5.910156 7.539063 C 5.910156 7.539063 5.910156 7.535156 5.910156 7.535156 C 5.910156 4.042969 8.902344 1.210938 12.597656 1.207031 C 16.292969 1.203125 19.289063 4.035156 19.289063 7.527344 C 19.289063 7.527344 19.289063 7.53125 19.289063 7.535156 Z "/>
</g>
<g clip-path="url(#clip2)" clip-rule="nonzero">
<path style=" stroke:none;fill-rule:nonzero;fill:rgb(0%,0%,0%);fill-opacity:1;" d="M 18.039063 2.382813 C 19.523438 3.785156 20.261719 5.503906 20.261719 7.535156 C 20.261719 9.5625 19.535156 11.261719 18.078125 12.628906 C 16.53125 14.066406 14.699219 14.785156 12.589844 14.785156 C 10.507813 14.785156 8.710938 14.074219 7.199219 12.648438 C 5.691406 11.21875 4.9375 9.515625 4.9375 7.535156 C 4.9375 5.550781 5.691406 3.835938 7.199219 2.382813 C 8.671875 0.980469 10.46875 0.28125 12.589844 0.28125 C 14.738281 0.28125 16.554688 0.980469 18.039063 2.382813 Z M 8.199219 3.328125 C 6.945313 4.523438 6.320313 5.925781 6.320313 7.535156 C 6.320313 9.144531 6.9375 10.535156 8.179688 11.707031 C 9.421875 12.878906 10.898438 13.464844 12.613281 13.464844 C 14.328125 13.464844 15.820313 12.875 17.085938 11.6875 C 18.289063 10.589844 18.890625 9.203125 18.890625 7.535156 C 18.890625 5.878906 18.277344 4.472656 17.054688 3.316406 C 15.835938 2.164063 14.355469 1.585938 12.613281 1.585938 C 10.875 1.585938 9.402344 2.167969 8.199219 3.328125 Z M 11.5 6.828125 C 11.308594 6.433594 11.019531 6.234375 10.640625 6.234375 C 9.960938 6.234375 9.625 6.664063 9.625 7.527344 C 9.625 8.386719 9.960938 8.816406 10.640625 8.816406 C 11.085938 8.816406 11.40625 8.605469 11.597656 8.1875 L 12.535156 8.660156 C 12.085938 9.410156 11.417969 9.785156 10.523438 9.785156 C 9.832031 9.785156 9.28125 9.585938 8.867188 9.1875 C 8.449219 8.785156 8.242188 8.234375 8.242188 7.535156 C 8.242188 6.84375 8.457031 6.296875 8.882813 5.890625 C 9.3125 5.484375 9.84375 5.28125 10.484375 5.28125 C 11.429688 5.28125 12.105469 5.632813 12.515625 6.335938 Z M 15.910156 6.828125 C 15.71875 6.433594 15.4375 6.234375 15.066406 6.234375 C 14.375 6.234375 14.03125 6.664063 14.03125 7.527344 C 14.03125 8.386719 14.375 8.816406 15.066406 8.816406 C 15.515625 8.816406 15.828125 8.605469 16.007813 8.1875 L 16.964844 8.660156 C 16.519531 9.410156 15.847656 9.785156 14.957031 9.785156 C 14.269531 9.785156 13.71875 9.585938 13.300781 9.1875 C 12.890625 8.785156 12.679688 8.234375 12.679688 7.535156 C 12.679688 6.84375 12.890625 6.296875 13.3125 5.890625 C 13.734375 5.484375 14.269531 5.28125 14.917969 5.28125 C 15.863281 5.28125 16.539063 5.632813 16.945313 6.335938 Z "/>
</g>
<path style=" stroke:none;fill-rule:nonzero;fill:rgb(100%,100%,100%);fill-opacity:1;" d="M 29.050781 6.902344 C 29.292969 6.902344 29.476563 6.851563 29.601563 6.75 C 29.730469 6.652344 29.792969 6.503906 29.792969 6.308594 C 29.792969 6.117188 29.730469 5.96875 29.601563 5.871094 C 29.476563 5.765625 29.292969 5.714844 29.050781 5.714844 L 28.199219 5.714844 L 28.199219 6.902344 L 29.050781 6.902344 M 29.105469 9.351563 C 29.414063 9.351563 29.644531 9.289063 29.800781 9.167969 C 29.957031 9.042969 30.035156 8.859375 30.035156 8.613281 C 30.035156 8.371094 29.957031 8.1875 29.804688 8.066406 C 29.648438 7.945313 29.414063 7.882813 29.105469 7.882813 L 28.199219 7.882813 L 28.199219 9.351563 L 29.105469 9.351563 M 30.535156 7.335938 C 30.863281 7.425781 31.121094 7.59375 31.300781 7.835938 C 31.484375 8.078125 31.574219 8.375 31.574219 8.726563 C 31.574219 9.269531 31.378906 9.671875 30.988281 9.9375 C 30.601563 10.199219 30.007813 10.332031 29.214844 10.332031 L 26.664063 10.332031 L 26.664063 4.734375 L 28.972656 4.734375 C 29.800781 4.734375 30.398438 4.851563 30.769531 5.085938 C 31.144531 5.320313 31.328125 5.699219 31.328125 6.214844 C 31.328125 6.488281 31.261719 6.71875 31.125 6.914063 C 30.988281 7.101563 30.792969 7.242188 30.535156 7.335938 M 31.441406 4.734375 L 33.121094 4.734375 L 34.480469 6.730469 L 35.839844 4.734375 L 37.523438 4.734375 L 35.25 7.972656 L 35.25 10.332031 L 33.714844 10.332031 L 33.714844 7.972656 L 31.441406 4.734375 M 36.695313 7.578125 L 39.203125 7.578125 L 39.203125 8.667969 L 36.695313 8.667969 L 36.695313 7.578125 M 44.558594 4.910156 L 44.558594 6.09375 C 44.230469 5.957031 43.910156 5.855469 43.597656 5.785156 C 43.285156 5.714844 42.992188 5.679688 42.714844 5.679688 C 42.347656 5.679688 42.078125 5.726563 41.902344 5.820313 C 41.722656 5.917969 41.636719 6.0625 41.636719 6.265625 C 41.636719 6.414063 41.695313 6.53125 41.8125 6.617188 C 41.933594 6.699219 42.148438 6.769531 42.460938 6.828125 L 43.113281 6.953125 C 43.777344 7.078125 44.25 7.269531 44.53125 7.523438 C 44.808594 7.777344 44.949219 8.140625 44.949219 8.613281 C 44.949219 9.230469 44.753906 9.691406 44.363281 9.992188 C 43.972656 10.292969 43.378906 10.441406 42.574219 10.441406 C 42.199219 10.441406 41.816406 10.410156 41.4375 10.339844 C 41.054688 10.273438 40.675781 10.171875 40.292969 10.039063 L 40.292969 8.820313 C 40.675781 9.011719 41.042969 9.15625 41.398438 9.253906 C 41.753906 9.347656 42.097656 9.394531 42.429688 9.394531 C 42.761719 9.394531 43.019531 9.34375 43.199219 9.238281 C 43.378906 9.132813 43.464844 8.984375 43.464844 8.789063 C 43.464844 8.613281 43.40625 8.476563 43.28125 8.382813 C 43.164063 8.289063 42.921875 8.203125 42.558594 8.128906 L 41.964844 8.003906 C 41.367188 7.882813 40.929688 7.691406 40.652344 7.429688 C 40.378906 7.167969 40.242188 6.8125 40.242188 6.367188 C 40.242188 5.8125 40.433594 5.382813 40.816406 5.082031 C 41.199219 4.78125 41.753906 4.632813 42.472656 4.632813 C 42.800781 4.632813 43.136719 4.65625 43.484375 4.703125 C 43.828125 4.75 44.1875 4.816406 44.558594 4.910156 M 49.925781 9.3125 L 47.519531 9.3125 L 47.140625 10.332031 L 45.59375 10.332031 L 47.800781 4.734375 L 49.636719 4.734375 L 51.847656 10.332031 L 50.300781 10.332031 L 49.925781 9.3125 M 47.902344 8.273438 L 49.535156 8.273438 L 48.722656 6.046875 L 47.902344 8.273438 "/>
</g>
</svg>
